
<svg xmlns="http://www.w3.org/2000/svg" xmlns:xlink="http://www.w3.org/1999/xlink" viewBox="0 0 42 49">
  <path fill-rule="evenodd" clip-rule="evenodd" d="M37.5,38.3c4-2.5,4.2-8.2,0.4-11l-12.3-8.9c-2.2-1.6-5.1-1.7-7.3-0.3L4.5,26.5c-4,2.5-4.2,8.2-0.4,11l12.3,8.9c2.2,1.6,5.1,1.7,7.3,0.3L37.5,38.3z M22.8,45.2l13.8-8.5c2.9-1.8,3.1-6,0.3-8l-12.3-8.9c-1.6-1.2-3.7-1.2-5.4-0.2L5.4,28c-2.9,1.8-3.1,6-0.3,8L17.4,45C19,46.2,21.1,46.3,22.8,45.2z"/>
  <path fill="#C0EAFD" d="M37.9,20.1c3.8,2.8,3.6,8.5-0.4,11l-13.8,8.5c-2.3,1.4-5.2,1.3-7.3-0.3L4.1,30.3c-3.8-2.8-3.6-8.5,0.4-11l13.8-8.5c2.3-1.4,5.2-1.3,7.3,0.3L37.9,20.1z"/>
  <g>
    <defs>
      <path id="SVGID_1_" d="M37.9,11.5c3.8,2.8,3.6,8.5-0.4,11l-13.8,8.5c-2.3,1.4-5.2,1.3-7.3-0.3L4.1,21.7c-3.8-2.8-3.6-8.5,0.4-11l13.8-8.5c2.3-1.4,5.2-1.3,7.3,0.3L37.9,11.5z"/>
    </defs>
    <clipPath id="SVGID_2_">
      <use xlink:href="#SVGID_1_" style="overflow:visible;"/>
    </clipPath>
    <rect x="-3.6" y="-3.7" width="49.3" height="40.6" fill="#2B8EFF" clip-path="url(#SVGID_2_)"/>
  </g>
</svg>
